<?xml version="1.0" standalone="no"?>
<!DOCTYPE svg PUBLIC "-//W3C//DTD SVG 20010904//EN"
 "http://www.w3.org/TR/2001/REC-SVG-20010904/DTD/svg10.dtd">
<svg version="1.0" xmlns="http://www.w3.org/2000/svg"
 width="1080.000000pt" height="1080.000000pt" viewBox="0 0 1080.000000 1080.000000"
 preserveAspectRatio="xMidYMid meet">
<metadata>
Created by potrace 1.14, written by Peter Selinger 2001-2017
</metadata>
<g transform="translate(0.000000,1080.000000) scale(0.100000,-0.100000)"
fill="#000000" stroke="none">
<path d="M2119 10796 c-2 -2 -31 -7 -64 -10 -213 -19 -487 -93 -696 -187 -305
-137 -598 -357 -809 -608 -25 -30 -50 -59 -55 -65 -20 -22 -111 -152 -152
-217 -33 -53 -133 -241 -138 -259 -1 -3 -11 -27 -23 -53 -48 -106 -121 -342
-136 -437 -3 -19 -10 -62 -16 -95 -6 -33 -14 -89 -18 -125 -10 -89 -9 -6608 1
-6690 83 -697 453 -1296 1034 -1678 132 -86 427 -232 498 -246 6 -1 35 -10 65
-19 30 -10 69 -22 85 -26 51 -15 217 -50 265 -56 25 -2 65 -8 90 -12 59 -10
6605 -10 6690 0 127 15 146 17 215 32 39 9 79 17 90 20 40 8 194 55 256 78
418 158 777 428 1046 789 95 128 151 220 227 378 83 171 156 390 181 540 3 19
8 42 10 50 2 8 7 38 10 65 4 28 10 77 15 110 10 70 8 6633 -2 6685 -4 19 -10
58 -14 85 -3 28 -8 59 -11 70 -2 11 -6 31 -8 45 -3 14 -9 41 -14 60 -5 19 -17
64 -26 100 -10 36 -37 119 -62 185 -216 582 -662 1052 -1235 1303 -86 38 -184
76 -228 88 -96 26 -211 55 -238 59 -19 3 -37 7 -41 9 -3 2 -33 7 -66 10 -33 4
-73 10 -90 13 -32 8 -6629 16 -6636 9z"/>
</g>
</svg>
